<svg xmlns="http://www.w3.org/2000/svg" width="183.823" height="144" viewBox="0 0 183.823 144">
  <g id="グループ_530" data-name="グループ 530" transform="translate(-573.756 -1645)">
    <path id="パス_39" data-name="パス 39" d="M173.639,0H10.183A10.2,10.2,0,0,0,0,10.183V144H183.823V10.183A10.2,10.2,0,0,0,173.639,0m7.978,141.8H2.2V31.638H181.618Zm0-112.362H2.2V10.183A7.979,7.979,0,0,1,10.183,2.2H173.639a7.977,7.977,0,0,1,7.978,7.978Z" transform="translate(573.756 1645)" fill="#01588e"/>
    <path id="パス_40" data-name="パス 40" d="M19.592,12.527A4.406,4.406,0,1,0,24,16.933a4.412,4.412,0,0,0-4.405-4.406m0,6.606h0a2.2,2.2,0,1,1,2.2-2.2,2.207,2.207,0,0,1-2.2,2.2" transform="translate(573.532 1644.815)" fill="#01588e"/>
    <path id="パス_41" data-name="パス 41" d="M19.658,12.528Z" transform="translate(573.467 1644.815)" fill="#01ff8e"/>
    <path id="パス_42" data-name="パス 42" d="M34.061,12.527a4.406,4.406,0,1,0,4.405,4.406,4.412,4.412,0,0,0-4.405-4.406m0,6.606h0a2.2,2.2,0,1,1,2.2-2.2,2.207,2.207,0,0,1-2.2,2.2" transform="translate(573.319 1644.815)" fill="#01588e"/>
    <path id="パス_43" data-name="パス 43" d="M34.127,12.528Z" transform="translate(573.253 1644.815)" fill="#01ff8e"/>
    <path id="パス_44" data-name="パス 44" d="M48.529,12.527a4.406,4.406,0,1,0,4.405,4.406,4.412,4.412,0,0,0-4.405-4.406m0,6.606h0a2.2,2.2,0,1,1,2.2-2.2,2.207,2.207,0,0,1-2.2,2.2" transform="translate(573.105 1644.815)" fill="#01588e"/>
    <path id="パス_45" data-name="パス 45" d="M48.6,12.528Z" transform="translate(573.04 1644.815)" fill="#01ff8e"/>
    <path id="パス_46" data-name="パス 46" d="M164.242,11.36H71.206a5.583,5.583,0,1,0,0,11.167h93.037a5.583,5.583,0,1,0,0-11.167m2.387,7.968a3.365,3.365,0,0,1-2.385.994H71.205a3.379,3.379,0,0,1,0-6.758h93.038a3.373,3.373,0,0,1,2.386,5.764" transform="translate(572.788 1644.832)" fill="#01588e"/>
    <rect id="長方形_240" data-name="長方形 240" width="154.882" height="12.175" transform="translate(588.228 1685.088)" fill="#01588e"/>
    <path id="パス_47" data-name="パス 47" d="M68.2,96.871H34.789a.985.985,0,0,1-.985-.985V62.478a.986.986,0,0,1,.985-.985H68.2a.985.985,0,0,1,.985.985V95.886a.984.984,0,0,1-.985.985M35.775,94.9H67.212V63.463H35.775Z" transform="translate(573.258 1644.092)" fill="#01588e"/>
    <path id="パス_48" data-name="パス 48" d="M150.737,63.464h-68a.985.985,0,0,1,0-1.971h68a.985.985,0,0,1,0,1.971" transform="translate(572.55 1644.092)" fill="#01588e"/>
    <path id="パス_49" data-name="パス 49" d="M150.737,78.885h-68a.985.985,0,1,1,0-1.97h68a.985.985,0,1,1,0,1.97" transform="translate(572.55 1643.865)" fill="#01588e"/>
    <path id="パス_50" data-name="パス 50" d="M68.2,140.228H34.789a.986.986,0,0,1-.985-.985V105.835a.985.985,0,0,1,.985-.985H68.2a.984.984,0,0,1,.985.985v33.408a.985.985,0,0,1-.985.985m-32.423-1.971H67.212V106.82H35.775Z" transform="translate(573.258 1643.453)" fill="#01588e"/>
    <path id="パス_51" data-name="パス 51" d="M150.737,106.821h-68a.985.985,0,0,1,0-1.971h68a.985.985,0,0,1,0,1.971" transform="translate(572.55 1643.453)" fill="#01588e"/>
    <path id="パス_52" data-name="パス 52" d="M150.737,122.242h-68a.985.985,0,0,1,0-1.971h68a.985.985,0,0,1,0,1.971" transform="translate(572.55 1643.225)" fill="#01588e"/>
    <rect id="長方形_241" data-name="長方形 241" width="3.207" height="13.433" transform="translate(637.972 1770.18) rotate(-49)" fill="#fff"/>
    <path id="パス_53" data-name="パス 53" d="M75.333,136.833a1.045,1.045,0,0,1-.684-.254l-10.172-8.774a1.046,1.046,0,0,1-.109-1.477l2.1-2.43a1.046,1.046,0,0,1,1.477-.108l10.172,8.775a1.046,1.046,0,0,1,.108,1.477l-2.095,2.428a1.044,1.044,0,0,1-.793.364m-8.695-9.93,8.587,7.406.726-.842-8.586-7.406Z" transform="translate(572.811 1643.177)" fill="#fff"/>
    <path id="パス_54" data-name="パス 54" d="M65.663,133.179l1.969-6.147,5.792-2.85-14.544-4.7Z" transform="translate(572.889 1643.237)" fill="#fff"/>
    <path id="パス_55" data-name="パス 55" d="M65.647,134.21a1.046,1.046,0,0,1-.938-.583l-6.782-13.7a1.047,1.047,0,0,1,1.26-1.461l14.544,4.7a1.048,1.048,0,0,1,.141,1.936l-5.393,2.653-1.834,5.723a1.046,1.046,0,0,1-.919.725l-.079,0M60.9,121.226l4.534,9.156L66.62,126.7a1.049,1.049,0,0,1,.535-.621l3.472-1.708Z" transform="translate(572.903 1643.252)" fill="#fff"/>
    <rect id="長方形_242" data-name="長方形 242" width="3.209" height="13.433" transform="translate(637.981 1770.285) rotate(-49)" fill="#01588e"/>
    <path id="パス_56" data-name="パス 56" d="M65.672,133.285l1.969-6.147,5.792-2.85-14.544-4.7Z" transform="translate(572.888 1643.235)" fill="#01588e"/>
    <rect id="長方形_243" data-name="長方形 243" width="183.823" height="144" transform="translate(573.756 1645)" fill="none"/>
  </g>
</svg>
