<svg xmlns="http://www.w3.org/2000/svg" width="196.768" height="144" viewBox="0 0 196.768 144">
  <g id="グループ_527" data-name="グループ 527" transform="translate(-271.603 -1373)">
    <path id="パス_29" data-name="パス 29" d="M167.445,102.414V16.19a7.831,7.831,0,0,0-7.83-7.831H39.716a7.831,7.831,0,0,0-7.83,7.831v86.224H167.445ZM34.226,16.19a5.491,5.491,0,0,1,5.49-5.491h119.9a5.491,5.491,0,0,1,5.49,5.491V29.949H34.226Zm0,16.1H165.1v67.786H34.226Z" transform="translate(270.323 1372.664)" fill="#01588e"/>
    <path id="パス_30" data-name="パス 30" d="M46.912,17.792A3.593,3.593,0,1,0,50.5,21.385a3.593,3.593,0,0,0-3.592-3.593m0,4.845a1.253,1.253,0,1,1,1.252-1.253,1.255,1.255,0,0,1-1.252,1.253" transform="translate(269.862 1372.286)" fill="#01588e"/>
    <path id="パス_31" data-name="パス 31" d="M57.807,17.792A3.593,3.593,0,1,0,61.4,21.385a3.593,3.593,0,0,0-3.593-3.593m0,4.845a1.253,1.253,0,1,1,1.253-1.253,1.255,1.255,0,0,1-1.253,1.253" transform="translate(269.426 1372.286)" fill="#01588e"/>
    <path id="パス_32" data-name="パス 32" d="M68.7,17.792a3.593,3.593,0,1,0,3.592,3.593A3.593,3.593,0,0,0,68.7,17.792m0,4.845a1.253,1.253,0,1,1,1.252-1.253A1.255,1.255,0,0,1,68.7,22.637" transform="translate(268.988 1372.286)" fill="#01588e"/>
    <path id="パス_33" data-name="パス 33" d="M154,16.912H85.752a4.457,4.457,0,1,0,0,8.914H154a4.457,4.457,0,0,0,0-8.914m1.494,5.951a2.108,2.108,0,0,1-1.494.623H85.752a2.117,2.117,0,0,1,0-4.234H154a2.114,2.114,0,0,1,1.494,3.611" transform="translate(268.338 1372.321)" fill="#01588e"/>
    <path id="パス_34" data-name="パス 34" d="M174.188,108.1V15.855A15.871,15.871,0,0,0,158.333,0H38.437A15.87,15.87,0,0,0,22.582,15.855V108.1L2.269,129.885A8.259,8.259,0,0,0,0,135.561a8.568,8.568,0,0,0,2.309,5.829,8.253,8.253,0,0,0,6.1,2.61H188.363a8.249,8.249,0,0,0,6.1-2.61,8.563,8.563,0,0,0,2.308-5.829,8.25,8.25,0,0,0-2.268-5.676ZM28.886,6.3a13.467,13.467,0,0,1,9.551-3.964h119.9a13.533,13.533,0,0,1,13.515,13.516v91.538H24.922V15.855A13.466,13.466,0,0,1,28.886,6.3M192.752,139.79a5.9,5.9,0,0,1-4.389,1.87H8.406a5.9,5.9,0,0,1-4.389-1.87,6.239,6.239,0,0,1-1.677-4.229,5.905,5.905,0,0,1,1.64-4.079l20.281-21.749H172.508l20.281,21.749a5.9,5.9,0,0,1,1.639,4.079,6.232,6.232,0,0,1-1.676,4.229" transform="translate(271.603 1373)" fill="#01588e"/>
    <path id="パス_35" data-name="パス 35" d="M113.282,125.736H84.413L78.87,138.554H11.526v2.34H186.169v-2.34H118.824Zm-31.854,12.8,4.523-10.46h25.794l4.523,10.46Z" transform="translate(271.14 1367.951)" fill="#01588e"/>
    <path id="パス_36" data-name="パス 36" d="M101.191,74.4a1.917,1.917,0,0,1-1.19-.414c-4.2-3.318-8.587-6.747-8.588-6.748a1.92,1.92,0,1,1,2.364-3.025s3.256,2.544,6.844,5.371a61.59,61.59,0,0,1,9.549-11.044,1.92,1.92,0,0,1,2.57,2.852c-.071.064-7.091,6.432-9.83,11.942a1.92,1.92,0,0,1-1.3,1.019,1.943,1.943,0,0,1-.419.046" transform="translate(267.962 1370.669)" fill="#01588e"/>
    <path id="パス_37" data-name="パス 37" d="M101.518,89.062A23.479,23.479,0,1,1,125,65.583a23.506,23.506,0,0,1-23.48,23.48m0-45.039a21.56,21.56,0,1,0,21.56,21.559,21.584,21.584,0,0,0-21.56-21.559" transform="translate(268.469 1371.309)" fill="#01588e"/>
    <rect id="長方形_238" data-name="長方形 238" width="196.768" height="144" transform="translate(271.603 1373)" fill="none"/>
  </g>
</svg>
