<svg xmlns="http://www.w3.org/2000/svg" width="192.673" height="138" viewBox="0 0 192.673 138">
  <g id="グループ_537" data-name="グループ 537" transform="translate(-319.949 -2436.635)">
    <path id="パス_96" data-name="パス 96" d="M69.965,53.055a1.169,1.169,0,0,0-1.129-.886,1.121,1.121,0,0,0-.279.035L.886,68.881a1.163,1.163,0,0,0-.851,1.408l11.193,45.423a1.158,1.158,0,0,0,1.411.851L80.307,99.887a1.165,1.165,0,0,0,.851-1.41Zm-56.756,60.97L2.572,70.862,67.984,54.742,78.621,97.906Z" transform="translate(319.949 2457.723)" fill="#01588e"/>
    <path id="パス_97" data-name="パス 97" d="M45.678,65.3,35.017,79.358,17.465,72.213a1.164,1.164,0,0,0-1.511,1.531,1.147,1.147,0,0,0,.633.625l18.379,7.482a1.188,1.188,0,0,0,1.366-.375L47.532,66.7A1.163,1.163,0,0,0,45.678,65.3" transform="translate(326.361 2462.845)" fill="#01588e"/>
    <path id="パス_98" data-name="パス 98" d="M158.245.712A1.156,1.156,0,0,0,157.174,0H74.236a1.159,1.159,0,0,0-1.071.712L65.108,19.9a1.16,1.16,0,0,0-.091.451V136.836A1.166,1.166,0,0,0,66.181,138h99.046a1.166,1.166,0,0,0,1.164-1.164V20.35a1.158,1.158,0,0,0-.09-.451Zm5.819,134.961H67.345L67.4,20.455,75.011,2.327H156.4l7.666,18.4Z" transform="translate(346.231 2436.635)" fill="#01588e"/>
    <rect id="長方形_254" data-name="長方形 254" width="9.832" height="9.832" transform="translate(426.523 2475.338)" fill="#01588e"/>
    <path id="パス_99" data-name="パス 99" d="M130.908,44.428H85.159a1.163,1.163,0,1,0,0,2.327h45.749a1.163,1.163,0,0,0,0-2.327" transform="translate(353.903 2454.594)" fill="#01588e"/>
    <path id="パス_100" data-name="パス 100" d="M130.908,51.751H85.159a1.163,1.163,0,1,0,0,2.327h45.749a1.163,1.163,0,0,0,0-2.327" transform="translate(353.903 2457.554)" fill="#01588e"/>
    <path id="パス_101" data-name="パス 101" d="M130.908,59.074H85.159a1.163,1.163,0,1,0,0,2.327h45.749a1.163,1.163,0,0,0,0-2.327" transform="translate(353.903 2460.514)" fill="#01588e"/>
    <rect id="長方形_255" data-name="長方形 255" width="192.671" height="138" transform="translate(319.95 2436.635)" fill="none"/>
  </g>
</svg>
