<svg xmlns="http://www.w3.org/2000/svg" width="229.417" height="156" viewBox="0 0 229.417 156">
  <g id="グループ_533" data-name="グループ 533" transform="translate(-292.498 -1938.365)">
    <path id="パス_57" data-name="パス 57" d="M151.5,95.536V13.288a7.471,7.471,0,0,0-7.47-7.47H29.662a7.469,7.469,0,0,0-7.47,7.47V95.536H151.5ZM24.423,13.288A5.237,5.237,0,0,1,29.662,8.05H144.028a5.237,5.237,0,0,1,5.237,5.237V26.412H24.423Zm0,15.356H149.265V93.3H24.423Z" transform="translate(299.501 1940.201)" fill="#01588e"/>
    <path id="パス_58" data-name="パス 58" d="M33.577,12.383A3.427,3.427,0,1,0,37,15.81a3.426,3.426,0,0,0-3.427-3.427m0,4.621a1.2,1.2,0,1,1,1.194-1.194A1.2,1.2,0,0,1,33.577,17" transform="translate(302.012 1942.273)" fill="#01588e"/>
    <path id="パス_59" data-name="パス 59" d="M41.158,12.383a3.427,3.427,0,1,0,3.427,3.427,3.426,3.426,0,0,0-3.427-3.427m0,4.621a1.2,1.2,0,1,1,1.194-1.194A1.2,1.2,0,0,1,41.158,17" transform="translate(304.404 1942.273)" fill="#01588e"/>
    <path id="パス_60" data-name="パス 60" d="M48.74,12.383a3.427,3.427,0,1,0,3.427,3.427,3.426,3.426,0,0,0-3.427-3.427m0,4.621a1.2,1.2,0,1,1,1.194-1.194A1.2,1.2,0,0,1,48.74,17" transform="translate(306.797 1942.273)" fill="#01588e"/>
    <path id="パス_61" data-name="パス 61" d="M125.927,11.771H60.83a4.251,4.251,0,1,0,0,8.5h65.1a4.251,4.251,0,0,0,0-8.5m1.425,5.677a2.013,2.013,0,0,1-1.425.595H60.83a2.019,2.019,0,0,1,0-4.039h65.1a2.015,2.015,0,0,1,1.425,3.444" transform="translate(310.352 1942.08)" fill="#01588e"/>
    <path id="パス_62" data-name="パス 62" d="M166.155,103.116V15.124A15.139,15.139,0,0,0,151.031,0H36.664A15.14,15.14,0,0,0,21.541,15.124v87.993L2.164,123.9A7.887,7.887,0,0,0,0,129.31a8.181,8.181,0,0,0,2.2,5.559,7.87,7.87,0,0,0,5.817,2.489H179.678a7.864,7.864,0,0,0,5.815-2.489,8.168,8.168,0,0,0,2.2-5.559,7.88,7.88,0,0,0-2.163-5.415Zm-138.6-97.1a12.838,12.838,0,0,1,9.11-3.781H151.031a12.906,12.906,0,0,1,12.891,12.891V102.44H23.773V15.124a12.838,12.838,0,0,1,3.781-9.11m156.309,127.33a5.624,5.624,0,0,1-4.186,1.784H8.02a5.625,5.625,0,0,1-4.187-1.784,5.95,5.95,0,0,1-1.6-4.033A5.633,5.633,0,0,1,3.8,125.417l19.344-20.745H164.554L183.9,125.417a5.636,5.636,0,0,1,1.563,3.893,5.942,5.942,0,0,1-1.6,4.033" transform="translate(292.498 1938.365)" fill="#01588e"/>
    <path id="パス_63" data-name="パス 63" d="M105.084,87.51H77.547L72.26,99.735H8.021v2.233H174.61V99.735H110.371ZM74.7,99.72l4.315-9.979h24.6l4.315,9.979Z" transform="translate(295.029 1965.979)" fill="#01588e"/>
    <rect id="長方形_245" data-name="長方形 245" width="229.417" height="156" transform="translate(292.498 1938.365)" fill="none"/>
    <path id="パス_64" data-name="パス 64" d="M110.027,118.419c0,.128-.005-.354-.014.131H40.954c-.008-.485-.013,0-.013-.131,0-.981,4.08-37.758,4.08-37.758s.968-3.827,2.04-4.657c2.321-1.8,12.427-5.556,16.9-7.171.688,3.141,5.631,25.408,10.477,37.845-.226-8.16-.981-29.153-.981-29.153a3.9,3.9,0,0,1-1.129-1.6c-.129-.647,1.382-2.679,1.78-3.2l-7.3-6.049a6.4,6.4,0,0,1,1.027-1.441l.016-3.063a4.11,4.11,0,0,1-.987-1.627c-.373-1.079-1.5-4.639-1.5-4.639a4.643,4.643,0,0,1-1.909-1.682A7.787,7.787,0,0,1,61.748,49.9c.048-1.035,1.334-2.42,1.96-1.953-1.7-1.444-1.926-9.51,1.189-10.837-.081-2.761,3.8-4.063,5.036-5.6a7.869,7.869,0,0,1,9.407-1.571A21.657,21.657,0,0,1,86.595,35.8a4.7,4.7,0,0,1,2.722,2.992c.926,2.444-1.339,9.552-1.414,9.789.057-.088.712-1.085,1.276-.145.591.982.248,3.723-.56,5.169a7.247,7.247,0,0,1-2.988,2.617c-.322.091-.964,4.728-1.313,5.347a19.28,19.28,0,0,1-1.471,1.946l-.036,1.49a4.486,4.486,0,0,1,1.5,1.449L77.2,72.906l2.163,2.783-1.274,1.688,1.208,28.151c2.362-10.5,7.418-33.132,7.644-37.113C91.478,70.3,103.164,75.2,103.905,76a9.7,9.7,0,0,1,2.04,4.657s4.081,36.777,4.081,37.758" transform="translate(304.521 1948.964)" fill="#01588e"/>
    <rect id="長方形_246" data-name="長方形 246" width="122.766" height="63.585" transform="translate(323.403 1970.404)" fill="none"/>
    <path id="パス_65" data-name="パス 65" d="M194.841,139.429c-1.471-29.3-10.27-28.788-11.894-30.356-.877-.855-9.463-5.706-17.153-10.219,0,0-.7-.157-2.055-.382-.5-1.888-.735-4.887-.329-9.659l.226-2.108s15.852-15.02,17.519-30.693c.584-5.535-4.14-13.258-4.14-13.258s-4.59-14.032-20.1-17.73S127.9,18.82,127.9,18.82s-1.1,1.692-.1,2.936a20.3,20.3,0,0,1-6.345-1.637s-.774,6.334,3.489,9.2a31.205,31.205,0,0,1-6.348,1.246s3.439,3.657,4.279,6.376c.289.963-4.333,9.085-4.333,9.085s-2.589,3.61-1.526,5.863-3,7.78-4.56,8.694-1.12,4.32,1.041,4.877.409,3.745.409,3.745c-1.325,2.063-.442,8.765-1.619,12.744,0,0-.905,4.241,1.2,5.224,3.511,1.638,9.292,3.9,10.288,5.137a1.051,1.051,0,0,1,.087.183c.276.75.641,3.293,1.095,4.821-.034,0-.071,0-.1,0a60.9,60.9,0,0,1-11.946,2.514s-10.127,3.522-11.916,4.266c-9.428,3.93-12.892,13.382-14.688,16.609-5.161,9.217-4.026,21.287-4.758,21.891a64.044,64.044,0,0,0-.751,7.464H194.9a71.974,71.974,0,0,0-.054-10.632m-28.653-37.84.608-.045a1.5,1.5,0,0,1-.608.045" transform="translate(317.993 1944.304)" fill="#01588e"/>
    <rect id="長方形_247" data-name="長方形 247" width="229.417" height="156" transform="translate(292.498 1938.365)" fill="none"/>
  </g>
</svg>
