<svg id="グループ_445" data-name="グループ 445" xmlns="http://www.w3.org/2000/svg" width="64.485" height="56" viewBox="0 0 64.485 56">
  <path id="多角形_1" data-name="多角形 1" d="M27.909,7.526a5,5,0,0,1,8.666,0L60.17,48.505A5,5,0,0,1,55.837,56H8.648a5,5,0,0,1-4.333-7.495Z" fill="#fadd62"/>
  <path id="パス_3" data-name="パス 3" d="M15.594,4.073a14.087,14.087,0,0,1-.079-1.657c0-.552,0-.552.079-2.84l.552-13.412c.079-1.7.237-3.747.355-4.812H10.032c.158,1.1.276,3.077.355,4.812L10.939-.424c.118,2.367.118,2.367.118,2.8,0,.473-.039.868-.079,1.7Zm.552,8.639v-5.4h-5.72v5.4Z" transform="translate(19.036 38.746)" fill="#d65921"/>
</svg>
