<svg xmlns="http://www.w3.org/2000/svg" xmlns:xlink="http://www.w3.org/1999/xlink" width="426" height="217.936" viewBox="0 0 426 217.936">
  <defs>
    <clipPath id="clip-path">
      <rect id="長方形_217" data-name="長方形 217" width="410" height="217.936" fill="none"/>
    </clipPath>
  </defs>
  <g id="グループ_488" data-name="グループ 488" transform="translate(-742 -2175.032)">
    <g id="グループ_481" data-name="グループ 481" transform="translate(17 -1521.968)">
      <text id="会社設立後のお助け隊は_業界唯一の新設法人と税理士をつなぐ_マッチングサービスです" data-name="会社設立後のお助け隊は、
業界唯一の新設法人と税理士をつなぐ
マッチングサービスです" transform="translate(938 3802)" fill="#333" font-size="25" font-family="HiraKakuProN-W3, Hiragino Kaku Gothic ProN"><tspan x="-150" y="0">会社設立後のお助け隊は、</tspan><tspan y="0" fill="#01588e"></tspan><tspan fill="#01588e" font-family="HiraKakuProN-W6, Hiragino Kaku Gothic ProN"><tspan x="-212" y="50">業界唯一</tspan><tspan y="50" fill="#333" font-family="HiraKakuProN-W3, Hiragino Kaku Gothic ProN">の新設法人と税理士をつなぐ</tspan></tspan><tspan x="-136" y="100">マッチングサービスです</tspan></text>
      <g id="グループ_325" data-name="グループ 325" transform="translate(733 3697)" opacity="0.1">
        <g id="グループ_324" data-name="グループ 324" transform="translate(0 0)" clip-path="url(#clip-path)">
          <path id="パス_23" data-name="パス 23" d="M26.221,100.854,0,87.025,42.3,0,70.5,13.469Zm93.9,73.517a8.443,8.443,0,0,1-1.944,1.325,8.766,8.766,0,0,1-3.845.889,8.551,8.551,0,0,1-7.693-4.791,8.82,8.82,0,0,1-.889-3.845,8.533,8.533,0,0,1,1.7-5.12l11-14.775a8.433,8.433,0,0,1,3.1-2.569,8.757,8.757,0,0,1,3.837-.889,8.538,8.538,0,0,1,7.7,4.791,8.762,8.762,0,0,1,.885,3.845,8.565,8.565,0,0,1-.808,3.632Zm26.6,9.83v0l-5.089,6.827a8.565,8.565,0,0,1-3.095,2.573,8.854,8.854,0,0,1-3.845.885A8.538,8.538,0,0,1,127,189.7a8.754,8.754,0,0,1-.881-3.841,8.5,8.5,0,0,1,1.534-4.9,18.427,18.427,0,0,0,1.615-1.878l11-14.775a18.188,18.188,0,0,0,1.341-2.1l8.929-11.99a8.463,8.463,0,0,1,3.095-2.573,8.783,8.783,0,0,1,3.841-.885,8.551,8.551,0,0,1,7.7,4.791,8.758,8.758,0,0,1,.885,3.841,8.519,8.519,0,0,1-1.689,5.123l-2.967,3.984-.012.008Zm23.164,14.026a19.081,19.081,0,0,0-1.549,2.469,8.493,8.493,0,0,1-2.894,2.33,8.812,8.812,0,0,1-3.841.885,8.551,8.551,0,0,1-7.7-4.791,8.812,8.812,0,0,1-.885-3.841,8.568,8.568,0,0,1,1.689-5.12l14.679-19.709a8.5,8.5,0,0,1,3.095-2.562,8.79,8.79,0,0,1,3.845-.889,8.559,8.559,0,0,1,5.12,1.688l0,.008a8.452,8.452,0,0,1,2.569,3.095,8.816,8.816,0,0,1,.885,3.845,8.574,8.574,0,0,1-1.692,5.123l-.328.437a18.7,18.7,0,0,0-1.994,2.26Zm32.823,1.48-11,14.771a8.5,8.5,0,0,1-3.1,2.569,8.8,8.8,0,0,1-3.848.889,8.527,8.527,0,0,1-5.116-1.692,8.4,8.4,0,0,1-2.573-3.1,8.762,8.762,0,0,1-.885-3.845,8.613,8.613,0,0,1,.657-3.315L190.318,187.9a8.706,8.706,0,0,1,5.51-1.955,8.551,8.551,0,0,1,7.693,4.791,8.762,8.762,0,0,1,.885,3.845,8.523,8.523,0,0,1-1.692,5.123m101.121-48.719a9.649,9.649,0,0,1-7.905,4.092,9.538,9.538,0,0,1-1.774-.189l-34.863-24.373a4.982,4.982,0,0,0-5.707,8.168l35.037,24.5a9.613,9.613,0,0,1,1.77,4.053,10.481,10.481,0,0,1,.147,1.723,9.434,9.434,0,0,1-1.723,5.46,9.653,9.653,0,0,1-7.913,4.092,9.493,9.493,0,0,1-4.648-1.217l-35.435-24.775a4.982,4.982,0,0,0-5.707,8.168l34.427,24.072a9.621,9.621,0,0,1,.437,2.863,9.466,9.466,0,0,1-1.719,5.467,9.656,9.656,0,0,1-7.909,4.092,9.519,9.519,0,0,1-5.479-1.723l-.989-.692a5.146,5.146,0,0,0-.951-.877l-26.2-18.322a4.983,4.983,0,1,0-5.711,8.168l20.107,14.061a9.821,9.821,0,0,1,.761,3.783,9.453,9.453,0,0,1-1.546,5.17,5.525,5.525,0,0,1-.688.294,21.507,21.507,0,0,1-3.779.866,73.264,73.264,0,0,1-7.751.672c-2.6.1-5.008.112-6.657.112h-.715c-1.959-.112-4.923-.452-8.187-.981-.97-.158-1.978-.336-2.987-.525l1.136-1.526a18.535,18.535,0,0,0,3.667-11.074,18.77,18.77,0,0,0-1.9-8.218,18.525,18.525,0,0,0-16.649-10.382c-.328,0-.645.012-.966.027,0-.124.015-.251.015-.375a18.719,18.719,0,0,0-1.9-8.218,18.431,18.431,0,0,0-5.552-6.7l-.019-.015a18.475,18.475,0,0,0-11.074-3.667c-.128,0-.259.008-.383.012.05-.553.081-1.105.081-1.658a18.741,18.741,0,0,0-1.9-8.218,18.514,18.514,0,0,0-16.653-10.378,18.736,18.736,0,0,0-8.215,1.9,18.389,18.389,0,0,0-6.712,5.572l-.533.711a18.5,18.5,0,0,0-16.63-10.34,18.765,18.765,0,0,0-8.218,1.9,18.463,18.463,0,0,0-6.711,5.576l-1.113,1.491c-1.175-1.09-2.28-2.152-3.3-3.18a63.36,63.36,0,0,1-5.2-5.815L84.322,111.317a33.048,33.048,0,0,0-15.285-11.8L43.052,89.691,79.5,17.778l49.735,23.9a77.023,77.023,0,0,0,27.333,7.364l-6.051,3.69a19.167,19.167,0,0,0-7.341,8.149L129.378,89.915a11.864,11.864,0,0,0,5.815,15.911l4.25,1.936a25.23,25.23,0,0,0,25.571-2.782l29.1-21.827a18.837,18.837,0,0,1,7.8-3.443l5.467-1.043a19.168,19.168,0,0,1,3.532-.332A18.9,18.9,0,0,1,221.5,81.581L301.748,135.9a4.68,4.68,0,0,1,1,1.028,13.02,13.02,0,0,1,1.638,3.149,20.832,20.832,0,0,1,1.024,3.732,10.133,10.133,0,0,1,.151,1.727,9.423,9.423,0,0,1-1.723,5.456m37.12-51.47a33.087,33.087,0,0,0-15.285,11.8l-13.775,19.412-84.815-57.4a28.853,28.853,0,0,0-21.572-4.447l-5.463,1.039a28.823,28.823,0,0,0-11.908,5.263l-29.1,21.823a15.238,15.238,0,0,1-15.459,1.685l-4.262-1.936a1.9,1.9,0,0,1-.819-.715,1.957,1.957,0,0,1-.3-1.032,1.915,1.915,0,0,1,.189-.815l13.786-29.037a9.225,9.225,0,0,1,3.532-3.914l28.368-17.3a19.947,19.947,0,0,1,14.107-2.577l34.941,6.584a77.18,77.18,0,0,0,14.265,1.329,77.025,77.025,0,0,0,33.38-7.6l49.739-23.9,36.444,71.914Zm42.819,1.337L339.486,13.469,367.692,0l42.3,87.025Z" transform="translate(0.003 0)" fill="#56aedd"/>
        </g>
      </g>
    </g>
  </g>
</svg>
