<svg xmlns="http://www.w3.org/2000/svg" xmlns:xlink="http://www.w3.org/1999/xlink" width="90.383" height="87.442" viewBox="0 0 90.383 87.442">
  <defs>
    <clipPath id="clip-path">
      <rect id="長方形_342" data-name="長方形 342" width="90.383" height="87.442" fill="none"/>
    </clipPath>
    <clipPath id="clip-path-2">
      <rect id="長方形_343" data-name="長方形 343" width="70.063" height="79.103" fill="#fff"/>
    </clipPath>
  </defs>
  <g id="グループ_579" data-name="グループ 579" transform="translate(0 0)">
    <g id="グループ_580" data-name="グループ 580" transform="translate(0 0)">
      <g id="グループ_579-2" data-name="グループ 579" clip-path="url(#clip-path)">
        <path id="パス_151" data-name="パス 151" d="M43.254,3.908a19.266,19.266,0,0,0-16.671,28.97l-4.675,4.848,7.277-1.353A19.284,19.284,0,1,0,43.254,3.908" transform="translate(27.836 4.965)" fill="#fff" opacity="0.901"/>
      </g>
    </g>
    <g id="グループ_582" data-name="グループ 582" transform="translate(0 0)" opacity="0.508">
      <g id="グループ_581" data-name="グループ 581" clip-path="url(#clip-path-2)">
        <path id="パス_152" data-name="パス 152" d="M34.731,10.436a5.31,5.31,0,0,0-.241-1.349A2.519,2.519,0,0,0,34.5,8.74a2.123,2.123,0,0,0-.061-.372,2.414,2.414,0,0,0-.316-.7,2.569,2.569,0,0,0-.522-.595,2.327,2.327,0,0,0-.695-.391A4.354,4.354,0,0,0,32.2,6.5a10.106,10.106,0,0,0-1.3-.186l-.068,0a6.338,6.338,0,0,0-1.1-.234c.906-.69,2.448.372,2.448.372A2.779,2.779,0,0,0,30.264,4.8a2.513,2.513,0,0,0-2.393,1.063c-1.544-3.031-2.182-2.977-3.192-2.286-1.7-1.755-4.841-1.224-5.956-.159,1.7-.425,4.521.266,5.318,1.542-1.276-1.063-5.531-2.286-7.286-.052a9.145,9.145,0,0,1-2.607.9,2.4,2.4,0,0,0-1.526,2.252,8.723,8.723,0,0,0-.713.729,6.437,6.437,0,0,0-.747,1.069,6.292,6.292,0,0,0-.286.6c-.084.2-.154.4-.216.6a5.215,5.215,0,0,0-.143.6c-.009.057-.018.116-.023.173a2.6,2.6,0,0,0-.388,1.737,2.69,2.69,0,0,1,.409-1.2,1.394,1.394,0,0,0,.184.445l.03.043a3.182,3.182,0,0,0-.356,2.361c-1.755,1.6-.8,4.893-.425,5.372.477,1.542-.161,2.552-.427,2.659a2.425,2.425,0,0,0,1.212-.574l.016.048a6.049,6.049,0,0,0,.588,1.362A5.444,5.444,0,0,0,11.33,27.4c.266.851,1.487,2.872,2.128,2.5a27.256,27.256,0,0,0,1.487,4.682,48.982,48.982,0,0,0,3.406,4.094,5.8,5.8,0,0,0,.9,1.648,9.4,9.4,0,0,0,4.466,1.065c1.065-.159,6.383-5.213,6.809-6.169s1.435-4.362,1.435-4.362-.372-.213.159-.107,2.607-2.607,3.351-4.786c.568-1.662.116-2.182-.132-2.334.159-.179.313-.366.461-.561a4.746,4.746,0,0,0,.3-.434,1.7,1.7,0,0,0,.967.509c-.372-.372-.213-2.073.052-3.989a4.93,4.93,0,0,0-.211-2.477,5.127,5.127,0,0,0,0-1.882,3.755,3.755,0,0,0-1.6-2.448c.425.107,2.393,1.862,1.969,3.458.849-2.448-1.01-5.159-2.554-5.372m-23.446.2c.082-.186.175-.372.275-.556a7.689,7.689,0,0,1,.677-1.024c.116-.152.236-.3.356-.436a4.492,4.492,0,0,0,.066.806A8.619,8.619,0,0,0,11.214,10.8c.023-.054.045-.111.07-.168m-.459,1.608a1.759,1.759,0,0,1,.027-.32,1.267,1.267,0,0,1,.849-.477c-.1.238-.47.618-.811,1.144a1.1,1.1,0,0,1-.066-.347M33.291,7.453a2.3,2.3,0,0,1,.422.468,2.106,2.106,0,0,0-1.483-.356,1.4,1.4,0,0,0-.391-.688c.086.02.175.041.263.064a2.841,2.841,0,0,1,1.188.513m2.1,15.363c.111-.429.243-.849.3-.679a.471.471,0,0,0,.07.132,4.671,4.671,0,0,1-.343.511l-.027.036m1.049-6.946a.767.767,0,0,0-.059-.061.305.305,0,0,1,.059.061" transform="translate(11.88 3.091)" fill="#fff"/>
        <path id="パス_153" data-name="パス 153" d="M64.812,66.638s-2.579-29.969-3.179-31.622a10.19,10.19,0,0,0-2.407-3.458C58.777,31.106,47.5,27.65,47.5,27.65L41.79,23.892l-1.5-3.006-.452-4.512H26.457l-.45,4.512-1.5,3.006L18.792,27.65S7.518,31.106,7.066,31.557a10.224,10.224,0,0,0-2.4,3.458c-.6,1.653-3.179,31.622-3.179,31.622Z" transform="translate(1.884 20.804)" fill="#fff"/>
      </g>
    </g>
  </g>
</svg>
